<?xml version="1.0" standalone="no"?>
<!DOCTYPE svg PUBLIC "-//W3C//DTD SVG 20010904//EN"
 "http://www.w3.org/TR/2001/REC-SVG-20010904/DTD/svg10.dtd">
<svg version="1.0" xmlns="http://www.w3.org/2000/svg"
 width="700.000000pt" height="700.000000pt" viewBox="0 0 700.000000 700.000000"
 preserveAspectRatio="xMidYMid meet">
<metadata>
Created by potrace 1.11, written by Peter Selinger 2001-2013
</metadata>
<g transform="translate(0.000000,700.000000) scale(0.100000,-0.100000)"
fill="#000000" stroke="none">
<path d="M4560 5935 c-586 -586 -1069 -1065 -1075 -1065 -5 0 -486 476 -1067
1057 l-1058 1058 -672 -673 -673 -672 1058 -1058 c581 -581 1057 -1062 1057
-1067 0 -5 -479 -489 -1065 -1075 l-1065 -1065 675 -675 675 -675 1070 1070
1070 1070 1075 -1075 1075 -1075 672 673 673 672 -1075 1075 -1075 1075 1070
1070 1070 1070 -675 675 -675 675 -1065 -1065z"/>
</g>
</svg>
